<?xml version="1.0" encoding="utf-8"?>
<!DOCTYPE svg PUBLIC "-//W3C//DTD SVG 1.1//EN" "http://www.w3.org/Graphics/SVG/1.1/DTD/svg11.dtd">
<svg version="1.1" xmlns="http://www.w3.org/2000/svg" xmlns:xlink="http://www.w3.org/1999/xlink" x="0px" y="0px" width="70px" height="44px" viewBox="0 0 70 44" enable-background="new 0 0 70 44" xml:space="preserve">
<polygon fill="#0094FF" points="2.499,34 3.999,34 3.999,27 6.499,27 6.499,25.5 -0.001,25.5 -0.001,27 2.499,27 	"/>
<path fill="#0094FF" d="M9.617,25.5H7.999L4.788,34h1.461l0.75-2h3.5l0.75,2h1.75l-0.168-0.141L9.617,25.5z M7.499,30.5l1.299-3.525h0.023h0.012l1.27,3.525H7.499z"/>
<polygon fill="#0094FF" points="20.249,25.5 18.64,25.5 12.999,34 12.999,34 14.618,34 	"/>
<polygon fill="#0094FF" points="14.749,25.5 12.999,25.5 18.749,34 20.499,34 	"/>
<polygon fill="#0094FF" points="0.496,43.5 1.996,43.5 1.996,40 5.496,40 5.496,38.5 1.996,38.5 1.996,36.5 6.496,36.5 6.496,35 0.496,35 	"/>
<path fill="#0094FF" d="M10.496,34.75c-2.5,0-4,2.25-4,4.5s1.5,4.5,4,4.5s4-2.25,4-4.5S12.996,34.75,10.496,34.75z M10.496,42.5c-2,0-2.5-2-2.5-3.25s0.5-3.25,2.5-3.25s2.5,2,2.5,3.25S12.496,42.5,10.496,42.5z"/>
<path fill="#0094FF" d="M20.496,39.949c0,1.051,0,2.551-2,2.551s-2-1.5-2-2.551V35h-1.5v5.436c0,2.064,1.5,3.314,3.5,3.314s3.5-1.25,3.5-3.314V35h-1.5V39.949z"/>
<polygon fill="#0094FF" points="28.496,41.256 24.496,35 22.996,35 22.996,43.5 24.496,43.5 24.496,37.254 28.496,43.5 29.996,43.5 29.996,35 28.496,35 	"/>
<path fill="#0094FF" d="M34.496,35h-3.5v8.5h3.5c2.5,0,3.5-2,3.5-4.252C37.996,37,36.996,35,34.496,35z M33.746,42.273h-1.25v-6.049h1.25c2.32,0,2.75,1.274,2.75,3.023C36.496,41,36.066,42.273,33.746,42.273z"/>
<rect x="51.996" y="35" fill="#0094FF" width="1.5" height="8.5"/>
<path fill="#0094FF" d="M35.499,1c-9.112,0-16.5,7.387-16.5,16.5c0,3.438,1.052,6.63,2.852,9.271L22.499,25c0,0,4-2,6-2c1,0,2,0,4,1c-1-2-3-2-4-2c-3,0-6,2-6,2l-1-1c0-0.5,0.5-0.875,1-1c0,0,3-2,5-2c1,0,3,0,4,1c-1-2-3-2-4-2c-2,0-5,2-5,2c0-1,1-2,1-2c0-2,4-5,4-5v-2l1-3l1,3v2c0,0,4,3,4,5c0,0,1,1,1,2c0,0,0,1-1,1c0,0,2,0,2,1l-1,1v1l13.158,3.65c2.696-2.937,4.342-6.851,4.342-11.15C51.999,8.387,44.612,1,35.499,1z"/>
<polygon fill="#0094FF" points="30.499,26 28.499,27 26.499,26 23.499,28 22.499,28 23.499,29 26.499,27 26.499,31 27.499,32 27.499,27.5 28.499,28 29.499,27.5 29.499,32 30.499,33 30.499,27 32.499,27.5 32.499,33 33.499,33 33.499,27.75 35.499,28.25 35.499,33 36.499,33 36.499,28.5 38.499,29 38.499,33 39.499,33 39.499,29.25 41.499,29.75 41.499,33 42.499,32 42.499,30 46.499,31 46.499,30 	"/>
<path fill="#0094FF" d="M42.496,35h-1.5l-3.25,8.5h1.5l0.75-2h3.5l0.75,2h1.5L42.496,35z M40.496,40l1.25-3.5l1.25,3.5H40.496z"/>
<polygon fill="#0094FF" points="46.996,43.5 48.496,43.5 48.496,36.5 50.996,36.5 50.996,35 44.496,35 44.496,36.5 46.996,36.5 	"/>
<polygon fill="#0094FF" points="67.996,41.256 63.996,35 62.496,35 62.496,43.5 63.996,43.5 63.996,37.254 67.996,43.5 69.496,43.5 69.496,35 67.996,35 	"/>
<path fill="#0094FF" d="M57.996,34.75c-2.5,0-4,2.25-4,4.5s1.5,4.5,4,4.5s4-2.25,4-4.5S60.496,34.75,57.996,34.75z M57.996,42.5c-2,0-2.5-2-2.5-3.25s0.5-3.25,2.5-3.25s2.5,2,2.5,3.25S59.996,42.5,57.996,42.5z"/>
</svg>