<?xml version="1.0" encoding="utf-8"?>
<!DOCTYPE svg PUBLIC "-//W3C//DTD SVG 1.1//EN" "http://www.w3.org/Graphics/SVG/1.1/DTD/svg11.dtd">
<svg version="1.1" id="Layer_1" xmlns="http://www.w3.org/2000/svg" xmlns:xlink="http://www.w3.org/1999/xlink" x="0px" y="0px"
	 width="900px" height="540px" viewBox="0 0 900 540" enable-background="new 0 0 900 540" xml:space="preserve">
<rect fill="#0094FF" width="900" height="540"/>
<path fill="#FFFFFF" d="M558.183,180.103c-3.626,0-4.685,3.758-4.685,7.057v1.383h9.3
	C562.599,183.134,561.939,180.103,558.183,180.103z"/>
<path fill="#FFFFFF" d="M493.828,243.271c3.755,0,5.208-2.506,5.208-8.835c-0.064-5.343-0.791-9.231-5.208-9.231
	c-4.617,0-5.146,3.957-5.146,9.231C488.682,240.766,490.137,243.271,493.828,243.271z"/>
<path fill="#FFFFFF" d="M407.366,313.771v59.763c2.021,0.461,4.062,0.879,6.112,1.263v-59.699l5.659,1.278v59.394
	c1.905,0.289,3.825,0.534,5.752,0.756v-58.963l5.846,1.276v58.263c1.938,0.155,3.886,0.271,5.841,0.356v-57.339l5.84,1.273v56.217
	c0.487,0.005,0.973,0.02,1.46,0.02c1.466,0,2.927-0.021,4.384-0.061v-54.896l5.844,1.282V377.3c1.955-0.12,3.902-0.271,5.842-0.458
	v-51.617l5.841,1.192v49.745c1.99-0.268,3.969-0.569,5.938-0.906v-47.566l5.839,1.278v45.181c1.932-0.404,3.85-0.849,5.754-1.317
	v-42.583l5.841,1.193v39.834c1.932-0.556,3.846-1.15,5.746-1.773v-36.787l5.851,1.273v33.478c2.025-0.752,4.033-1.543,6.021-2.372
	v-29.828l5.85,1.288v25.964c1.934-0.896,3.853-1.818,5.745-2.789v-21.903l5.844,1.19v17.559c1.975-1.115,3.921-2.271,5.843-3.465
	V340.29l5.843,1.278v7.746c4.762-3.242,9.34-6.735,13.726-10.453l-151.015-32.574l-21.178,8.396l-27.021-4.285l-29.749,11.254
	c1.392,1.593,2.813,3.156,4.264,4.692l22.653-8.825v28.768c1.887,1.376,3.803,2.714,5.751,4.011V317.52l20.447,3.193v41.169
	c2.4,1.14,4.838,2.226,7.304,3.251v-45.336l14.604-5.381v55.994c1.933,0.595,3.884,1.146,5.845,1.672V312.5L407.366,313.771z"/>
<path fill="#FFFFFF" d="M377.426,304.645l21.176-8.854l158.606,36.228c0.606-0.582,1.205-1.168,1.803-1.76l-160.361-38.799
	c-1.102,1.104-21.224,8.35-21.224,8.35l-27.021-5.205l-39.583,14.647c1.022,1.429,2.073,2.833,3.141,4.228l36.535-13.395
	L377.426,304.645z"/>
<polygon fill="#FFFFFF" points="80.557,377.592 97.455,377.592 97.455,295.52 128.143,295.52 128.143,281.008 50,281.008 50,295.52 
	80.557,295.52 "/>
<path fill="#FFFFFF" d="M162.604,281.008h-17.98l-37.034,96.584h17.434l9.057-25.521h38.522l9.059,25.521h16.553l0.998-1.462
	L162.604,281.008z M138.676,339.304l14.596-41.624h0.271h0.134l14.467,41.624H138.676z"/>
<polygon fill="#FFFFFF" points="217.542,377.592 242.008,340.663 266.072,377.592 286.625,377.592 252.422,327.539 284.325,281.008 
	265.397,281.008 242.555,315.096 220.65,281.008 200.506,281.008 232.413,327.539 199.213,376.13 199.776,377.592 "/>
<polygon fill="#FFFFFF" points="199.776,377.592 199.213,376.13 198.215,377.592 "/>
<polygon fill="#FFFFFF" points="59.211,487.427 76.113,487.427 76.113,444.506 119.777,444.506 119.777,430.682 76.113,430.682 
	76.113,405.354 125.861,405.354 125.861,390.842 59.211,390.842 "/>
<path fill="#FFFFFF" d="M172.276,388.658c-28.988,0-46.29,22.982-46.29,50.474c0,27.494,17.302,50.479,46.29,50.479
	c28.99,0,46.295-22.985,46.295-50.479C218.571,411.641,201.266,388.658,172.276,388.658z M172.276,475.789
	c-20.722,0-29.392-18.192-29.392-36.657c0-18.462,8.67-36.653,29.392-36.653c20.727,0,29.395,18.191,29.395,36.653
	C201.67,457.597,193.002,475.789,172.276,475.789z"/>
<path fill="#FFFFFF" d="M287.057,447.112c0,12.981-0.809,28-22.681,28c-21.876,0-22.681-15.019-22.681-28v-56.271H224.79v61.812
	c0,24.736,15.819,36.978,39.586,36.978c23.766,0,39.584-12.239,39.584-36.978v-61.812h-16.904L287.057,447.112L287.057,447.112z"/>
<polygon fill="#FFFFFF" points="376.747,461.996 376.477,461.996 332.518,390.842 314.698,390.842 314.698,487.427 330.765,487.427 
	330.765,416.409 331.169,416.409 374.995,487.427 392.807,487.427 392.807,390.842 376.747,390.842 "/>
<path fill="#FFFFFF" d="M447.529,390.863h-39.951v96.548l39.951,0.001c29.667,0,42.52-21.661,42.52-48.28
	C490.049,412.518,477.196,390.863,447.529,390.863z M441.057,473.594h-16.582V404.68h16.582c26.425,0,32.088,15.131,32.088,34.452
	C473.145,458.46,467.48,473.594,441.057,473.594z"/>
<path fill="#FFFFFF" d="M525.566,390.842l-37.035,96.585h17.434l9.055-25.521h38.527l9.06,25.521h18.115l-37.176-96.585H525.566z
	 M519.62,449.146l14.597-41.629h0.27h0.133l14.469,41.629H519.62z"/>
<polygon fill="#FFFFFF" points="564.509,405.354 595.055,405.354 595.055,487.427 611.959,487.427 611.959,405.354 642.645,405.354 
	642.645,390.842 564.509,390.842 "/>
<rect x="648.473" y="390.842" fill="#FFFFFF" width="16.896" height="96.585"/>
<path fill="#FFFFFF" d="M718.948,388.658c-28.985,0-46.294,22.982-46.294,50.474c0,27.494,17.309,50.479,46.294,50.479
	c28.997,0,46.297-22.985,46.297-50.479C765.245,411.641,747.945,388.658,718.948,388.658z M718.948,475.789
	c-20.725,0-29.389-18.192-29.389-36.657c0-18.461,8.664-36.653,29.389-36.653c20.734,0,29.394,18.192,29.394,36.653
	C748.342,457.597,739.686,475.789,718.948,475.789z"/>
<polygon fill="#FFFFFF" points="833.934,390.843 833.934,461.996 833.674,461.996 789.699,390.843 771.887,390.843 771.887,487.427 
	787.953,487.427 787.953,416.409 788.355,416.409 832.182,487.427 850,487.427 850,390.843 "/>
<path fill="#FFFFFF" d="M348.215,236.684c-0.66,0-1.192,0.527-1.192,1.184v10.726c0,0.655,0.532,1.19,1.192,1.19
	c0.653,0,1.186-0.535,1.186-1.19v-10.726C349.401,237.211,348.868,236.684,348.215,236.684z"/>
<path fill="#FFFFFF" d="M356.974,234.93c-0.651,0-1.186,0.526-1.186,1.184v10.727c0,0.65,0.532,1.184,1.186,1.184
	c0.659,0,1.188-0.533,1.188-1.184v-10.727C358.161,235.456,357.633,234.93,356.974,234.93z"/>
<path fill="#FFFFFF" d="M365.651,233.649c-0.66,0-1.191,0.527-1.191,1.184v10.725c0,0.656,0.532,1.19,1.191,1.19
	c0.652,0,1.186-0.534,1.186-1.19v-10.725C366.836,234.177,366.305,233.649,365.651,233.649z"/>
<path fill="#FFFFFF" d="M374.501,232.916c-0.653,0-1.185,0.532-1.185,1.188v10.728c0,0.655,0.53,1.19,1.185,1.19
	c0.658,0,1.187-0.535,1.187-1.19v-10.728C375.688,233.448,375.159,232.916,374.501,232.916z"/>
<path fill="#FFFFFF" d="M382.809,232.83c-0.655,0-1.186,0.527-1.186,1.185v10.721c0,0.655,0.528,1.188,1.186,1.188
	c0.656,0,1.188-0.533,1.188-1.188v-10.721C383.997,233.357,383.464,232.83,382.809,232.83z"/>
<path fill="#FFFFFF" d="M390.933,233.468c-0.654,0-1.188,0.529-1.188,1.183v10.727c0,0.655,0.532,1.189,1.188,1.189
	c0.657,0,1.189-0.534,1.189-1.189V234.65C392.122,233.997,391.59,233.468,390.933,233.468z"/>
<path fill="#FFFFFF" d="M340.998,238.764c-0.649,0-1.185,0.521-1.185,1.183v10.724c0,0.652,0.536,1.188,1.185,1.188
	c0.657,0,1.193-0.535,1.193-1.188v-10.724C342.191,239.285,341.655,238.764,340.998,238.764z"/>
<path fill="#FFFFFF" d="M334.249,242.658c-0.581,0-1.049,0.474-1.049,1.056v9.398c0,0.576,0.468,1.051,1.049,1.051
	c0.576,0,1.043-0.475,1.043-1.051v-9.398C335.292,243.132,334.825,242.658,334.249,242.658z"/>
<path fill="#FFFFFF" d="M328.36,246.45c-0.583,0-1.052,0.469-1.052,1.05v8.127c0,0.576,0.469,1.05,1.052,1.05
	c0.581,0,1.05-0.474,1.05-1.05V247.5C329.41,246.919,328.941,246.45,328.36,246.45z"/>
<path fill="#FFFFFF" d="M372.083,293.705c8.904,0.018,12.563,2.361,12.609-0.153c0.033-1.864-4.26-2.866-12.789-2.702
	c-10.73,0.192-11.914,1.021-11.879,3.25C360.045,295.703,362.452,293.688,372.083,293.705z"/>
<path fill="#FFFFFF" d="M382.535,203.959c-0.555,0-1,0.445-1,1.003v1.916c0,0.555,0.445,1.004,1,1.004
	c0.557,0,1.004-0.449,1.004-1.004v-1.916C383.539,204.404,383.092,203.959,382.535,203.959z"/>
<path fill="#FFFFFF" d="M375.233,203.912c-0.557,0-1.005,0.448-1.005,1.004v1.915c0,0.559,0.449,1.007,1.005,1.007
	c0.552,0,1.007-0.448,1.007-1.007v-1.915C376.24,204.36,375.785,203.912,375.233,203.912z"/>
<path fill="#FFFFFF" d="M367.837,204.369c-0.554,0-1.001,0.45-1.001,1.007v1.912c0,0.556,0.447,1.004,1.001,1.004
	s1.008-0.448,1.008-1.004v-1.912C368.845,204.819,368.391,204.369,367.837,204.369z"/>
<path fill="#FFFFFF" d="M360.628,205.466c-0.553,0-1.001,0.449-1.001,1.003v1.917c0,0.554,0.448,1.003,1.001,1.003
	s1.003-0.449,1.003-1.003v-1.917C361.631,205.915,361.181,205.466,360.628,205.466z"/>
<path fill="#FFFFFF" d="M353.69,207.382c-0.557,0-1.004,0.45-1.004,1.004v1.369c0,0.554,0.447,1.005,1.004,1.005
	c0.554,0,1.004-0.451,1.004-1.005v-1.369C354.694,207.832,354.244,207.382,353.69,207.382z"/>
<path fill="#FFFFFF" d="M347.393,209.479c-0.555,0-1.008,0.451-1.008,1.009v0.727c0,0.555,0.454,1.005,1.008,1.005
	c0.554,0,1.005-0.45,1.005-1.005v-0.727C348.397,209.93,347.946,209.479,347.393,209.479z"/>
<path fill="#FFFFFF" d="M341.729,211.899c-0.554,0-1.002,0.451-1.002,1.005v0.73c0,0.554,0.448,1.005,1.002,1.005
	c0.556,0,1.008-0.451,1.008-1.005v-0.73C342.737,212.351,342.286,211.899,341.729,211.899z"/>
<path fill="#FFFFFF" d="M443.876,50.371c-90.366,0-163.629,73.261-163.629,163.628c0,34.096,10.434,65.754,28.277,91.964
	l4.726-2.141v-17.805c0-3.01,3.286-3.373,3.286-1.459c0,0,0,11.873,0,14.061c0,3.286,3.194,4.107,3.194,0.729
	c0-2.097,0-20.176,0-20.265c0-3.282,4.387-3.743,4.387-1.729c0,4.198,0,17.155,0,19.537c0,2.369,3.373,2.004,3.373,0
	c0-2.015,0-22.826,0-22.645c0-2.645,5.298-3.287,5.298-1.278c0,0,0,17.712,0,20.722c0,2.646,3.101,2.561,3.101,0
	c0-2.281,0-22.633,0-22.729c0-2.101,7.303-3.374,7.303-0.91c0,0.182,0,16.887,0,19.902c0,3.008,3.285,2.463,3.285,0.181
	c0-2.278,0-18.894,0-21.181c0-2.372,1.941-3.49,3.47-2.623c2.371,1.343,3.287-0.114,3.468,2.257c0.238,3.099,0,17.353,0,19.354
	c0,2.279,3.288,2.098,3.288-0.185c0-1.272,0-20.632,0-21.634c0-0.55,4.292-2.098,4.648-0.15c0.306,1.663,3.746,0.517,3.746,2.433
	c0,2.471,0,17.166,0,18.26c0,2.007,3.196,2.007,3.196,0c0-1.189,0-19.989,0-21.457c0-1.638,4.748-1.092,4.744,1.031
	c0,1.755,4.066,0.497,4.109,1.71c0.093,2.555,0,17.067,0,18.808c0,2.1,3.195,2.006,3.195,0c0-1.646,0-20.45,0-21.641
	c0-1.091,3.74-2.008,4.188,0.103c0.398,1.901,4.119,1.137,4.119,3.277c0,4.108,0,15.521,0,18.532c0,2.373,3.191,1.731,3.191-0.547
	c0-2.281,0-16.614,0-19.356c0-1.372,3.602-1.959,4.564-0.352c1.37,2.27,3.744,1.037,3.744,2.634c0,3.197,0.091,14.885,0,16.894
	c0,2.917,3.195,3.288,3.195,0.272c0-2.373-0.035-17.446,0-17.53c1.001-2.373,4.927,4.199,6.756,1.461c0,0,4.652-5.751-1.275-7.298
	c-42.652-11.158-72.118,0.085-85.266,6.936c-0.902,0.466-3.896,1.893-6.64,3.5c-2.555,1.51-4.672,3.151-4.584,2.801
	c1.477-5.916,1.275-6.027,8.335-10.082c25.736-14.779,59.974-16.333,92.079-7.996c7.028,1.825,12.868,5.109,12.868,3.563
	c0-1.555-3.522-3.212-10.769-5.752c-10.411-3.646-60.708-14.97-99.502,10.222c-1.688,1.095,4.656-6.207,8.673-7.851v-6.297
	l-2.831-4.747v-3.38c23.461-17.432,64.813-16.613,84.896-11.315c6.785,1.785,11.773,4.563,11.908,2.912
	c0.139-1.648-12.135-5.574-14.924-6.201c-21.997-4.925-50.188-3.738-73.267,5.377c-3.044,1.2-5.549,2.877-5.781,2.428
	c-0.394-0.777,2.314-4.43,3.737-5.794c18.713-17.891,61.069-12.688,63.353-12.416c5.825,0.697,15.064,3.287,15.157,2.042
	c0.097-1.245-5.946-3.255-14.696-4.322c-30.671-3.744-48.384,2.646-56.854,6.358c-1.721,0.754-2.583,1.292-3.273,0.952
	c-0.7-0.326,0.292-3.094,0.879-4.484c0,0,7.578-19.258,29.691-33.208c-0.058,0.038,1.803-5.951,5.91-9.146c0,0,0-6.572,0-8.306
	c0-1.737-2.895-5.536-2.895-5.536s-0.71-1.458-0.025-2.407c4.471-6.205,8.033-9.036,8.033-11.409c0-3.014,0.729-18.987,2.92-18.987
	c2.193,0,2.918,16.521,2.918,19.716c0,3.015,4.569,5.846,7.947,10.775c0.618,0.905-0.186,2.464-0.186,2.464
	s-2.463,2.921-2.559,5.385c-0.125,3.377-0.045,8.229,0.042,8.295c4.432,3.297,6.025,9.226,5.895,9.141
	c28.116,18.258,29.771,41.617,30.578,42.176c7.579,5.198,11.688,14.693,11.688,14.693s0.27,2.005,0.035,4.207
	c-0.229,2.2-3.096,4.731-3.096,4.731l0.043,4.302c5.479,3.103,11.596,10.127,13.059,12.68c0.864,1.531-0.646,7.583-0.646,7.583
	s-1.732,4.016-3.558,7.114c-0.396,0.681,0,10.957,0,10.957l126.34,29.708c26.72-29.122,43.032-67.947,43.032-110.585
	C607.502,123.632,534.246,50.371,443.876,50.371z M558.513,173.904c10.616,0,12.989,7.12,12.989,18v2.045h-18.004v2.836
	c0,4.154,1.121,8.242,4.485,8.242c3.033,0,4.285-2.308,4.813-6.66h8.18c-0.334,8.242-4.286,12.859-12.859,12.859
	c-13.188,0-13.717-10.155-13.717-18.993C544.398,182.74,546.246,173.904,558.513,173.904z M430.591,197.51v-1.912h9.495v1.386
	c0,4.417,1.253,7.252,6.262,7.252c2.901,0,5.674-1.846,5.674-5.804c0-4.284-2.176-5.868-8.44-8.042
	c-8.439-2.9-12.329-6.396-12.329-14.242c0-9.168,5.604-13.849,14.572-13.849c8.438,0,14.572,3.627,14.572,12.66v1.318h-9.103
	c0-4.417-1.514-6.99-5.142-6.99c-4.286,0-5.408,2.705-5.408,5.474c0,2.902,0.859,4.681,4.88,6.396l7.32,3.164
	c7.122,3.102,8.968,6.728,8.968,12.464c0,9.956-6.068,14.441-16.354,14.441C434.813,211.227,430.591,206.214,430.591,197.51z
	 M468.111,265.691h-9.493v-32.97h-9.3v-6.198h0.854c6.198,0,10.024-2.374,10.948-7.517h6.989L468.111,265.691L468.111,265.691z
	 M475.825,210.302h-9.103v-35.477h9.103V210.302z M475.825,170.476h-9.103v-7.78h9.103V170.476z M493.297,266.612
	c-6.725,0-12.854-2.833-12.989-11.803h9.104c0,3.498,1.119,5.605,4.285,5.605c5.011,0,5.802-5.012,5.802-11.867v-2.243h-0.131
	c-1.582,2.374-4.687,3.957-8.772,3.957c-8.308,0-11.404-6.2-11.404-14.573c0-10.683,4.683-16.682,15.098-16.682
	c13.059,0,14.707,10.417,14.707,21.824C508.992,254.087,508.729,266.612,493.297,266.612z M509.123,210.302h-9.1V185.84
	c0-3.563-1.188-4.946-3.89-4.946c-3.103,0-4.815,1.91-4.815,5.868v23.54h-9.101v-35.477h8.704v4.156h0.131
	c1.912-3.496,5.21-5.077,9.036-5.077c5.671,0,9.032,3.1,9.032,10.089L509.123,210.302L509.123,210.302z M524.751,266.612
	c-9.031,0-13.519-5.472-13.519-14.373v-0.197h9.101c0.133,5.406,1.059,8.373,5.21,8.373c4.615,0,5.211-3.429,5.211-7.518
	c0-4.153-0.926-7.979-6.136-7.979h-3.164v-6.195h3.102c3.954,0,5.403-3.562,5.403-7.387c0-4.353-1.449-6.131-4.547-6.131
	c-4.091,0-4.815,3.164-4.815,7.583h-8.702c0-9.168,4.88-13.781,13.715-13.781c8.438,0,13.453,3.759,13.453,12
	c0,5.605-2.704,9.298-7.122,10.286v0.132c5.997,0.925,8.307,5.144,8.307,11.014C540.245,258.701,537.675,266.612,524.751,266.612z
	 M527.85,205.027c3.035,0,4.418-2.573,4.418-8.308h8.706c0,9.296-3.891,14.507-13.519,14.507c-9.1,0-13.584-4.42-13.584-18.663
	c0-14.57,6.001-18.659,14.375-18.659s12.728,5.34,12.728,13.715h-8.706c0-3.43-0.656-7.123-4.086-7.123
	c-4.483,0-5.212,3.957-5.212,12.135C522.97,201.4,523.763,205.027,527.85,205.027z M558.05,265.691h-9.956
	c1.451-11.276,5.404-25.189,14.571-37.586h-19.65v-8.178h28.751v7.253C564.05,238.063,559.567,252.502,558.05,265.691z"/>
</svg>
